<svg xmlns="http://www.w3.org/2000/svg" viewBox="0 0 200 200" width="200" height="200">
  
  <path d="M178.00,100.00 A78.00,78.00 0 0 1 177.71,106.73 L190.98,113.68 A92.00,92.00 0 0 1 185.63,133.64 L170.66,133.03 A78.00,78.00 0 0 1 163.93,144.68 L171.95,157.33 A92.00,92.00 0 0 1 157.33,171.95 L144.68,163.93 A78.00,78.00 0 0 1 133.03,170.66 L133.64,185.63 A92.00,92.00 0 0 1 113.68,190.98 L106.73,177.71 A78.00,78.00 0 0 1 93.27,177.71 L86.32,190.98 A92.00,92.00 0 0 1 66.36,185.63 L66.97,170.66 A78.00,78.00 0 0 1 55.32,163.93 L42.67,171.95 A92.00,92.00 0 0 1 28.05,157.33 L36.07,144.68 A78.00,78.00 0 0 1 29.34,133.03 L14.37,133.64 A92.00,92.00 0 0 1 9.02,113.68 L22.29,106.73 A78.00,78.00 0 0 1 22.29,93.27 L9.02,86.32 A92.00,92.00 0 0 1 14.37,66.36 L29.34,66.97 A78.00,78.00 0 0 1 36.07,55.32 L28.05,42.67 A92.00,92.00 0 0 1 42.67,28.05 L55.32,36.07 A78.00,78.00 0 0 1 66.97,29.34 L66.36,14.37 A92.00,92.00 0 0 1 86.32,9.02 L93.27,22.29 A78.00,78.00 0 0 1 106.73,22.29 L113.68,9.02 A92.00,92.00 0 0 1 133.64,14.37 L133.03,29.34 A78.00,78.00 0 0 1 144.68,36.07 L157.33,28.05 A92.00,92.00 0 0 1 171.95,42.67 L163.93,55.32 A78.00,78.00 0 0 1 170.66,66.97 L185.63,66.36 A92.00,92.00 0 0 1 190.98,86.32 L177.71,93.27 Z M 40,100 a 60,60 0 1,0 120,0 a 60,60 0 1,0 -120,0 Z" fill="#1A1A1A" fill-rule="evenodd"></path>
  
  
  <circle cx="100" cy="100" r="22" fill="#0A1F8F"></circle>
  
  <circle cx="95" cy="95" r="9.24" fill="#FAF8F3" opacity="0.18"></circle>
</svg>